<?xml version="1.0" encoding="UTF-8"?>
<!DOCTYPE svg PUBLIC "-//W3C//DTD SVG 1.1//EN" "http://www.w3.org/Graphics/SVG/1.1/DTD/svg11.dtd">
<!-- Creator: CorelDRAW 2021.5 -->
<svg xmlns="http://www.w3.org/2000/svg" xml:space="preserve" width="101.6mm" height="101.6mm" version="1.1" style="shape-rendering:geometricPrecision; text-rendering:geometricPrecision; image-rendering:optimizeQuality; fill-rule:evenodd; clip-rule:evenodd"
viewBox="0 0 10160 10160"
 xmlns:xlink="http://www.w3.org/1999/xlink"
 xmlns:xodm="http://www.corel.com/coreldraw/odm/2003">
 <defs>
  <style type="text/css">
   <![CDATA[
    .fil0 {fill:#34519D}
   ]]>
  </style>
 </defs>
 <g id="Layer_x0020_1">
  <metadata id="CorelCorpID_0Corel-Layer"/>
  <g id="logo.cdr">
   <rect class="fil0" transform="matrix(1.47694E-14 -0.987728 1.60157 7.51288E-14 1951.55 8343.69)" width="431.8" height="3649.13"/>
   <polygon class="fil0" points="2378.06,8332.17 2378.06,6071.17 1951.56,6354.32 1951.56,8332.17 "/>
   <polygon class="fil0" points="3035.13,5634.96 3035.13,8332.17 3461.63,8332.17 3461.63,5351.81 "/>
   <polygon class="fil0" points="4118.7,4915.6 4118.7,8332.17 4545.2,8332.17 4545.2,4632.45 "/>
   <polygon class="fil0" points="5202.27,4196.25 5202.27,8332.17 5628.77,8332.17 5628.77,3913.1 "/>
   <polygon class="fil0" points="6285.83,3476.89 6285.83,8332.17 6712.33,8332.17 6712.33,3193.74 "/>
   <polygon class="fil0" points="7369.4,2757.53 7369.4,8332.17 7795.9,8332.17 7795.9,2474.38 "/>
   <polygon class="fil0" points="7769.56,1697.35 7449.39,2167.51 7129.21,2637.68 6897.72,2306.2 6666.23,1974.72 7217.9,1836.03 "/>
   <polygon class="fil0" points="7079.58,2454 6979.87,2007.7 1930.4,5379.93 1930.4,5892.8 "/>
  </g>
 </g>
</svg>
